<?xml version="1.0" encoding="UTF-8"?>
<!DOCTYPE svg PUBLIC "-//W3C//DTD SVG 1.1//EN" "http://www.w3.org/Graphics/SVG/1.1/DTD/svg11.dtd">
<svg version="1.1" xmlns="http://www.w3.org/2000/svg" xmlns:xlink="http://www.w3.org/1999/xlink" x="0" y="0" width="176" height="75" viewBox="0, 0, 176, 75">
  <g id="Layer_1">
    <path d="M-0,1.97 L12.92,1.97 L25.266,38.242 L37.707,1.97 L50.675,1.97 L50.675,73.173 L41.727,73.173 L41.727,10.249 L28.998,47.764 L21.677,47.764 L8.9,10.249 L8.9,73.173 L-0,73.173 z" fill="#231400"/>
    <path d="M105.704,4.171 L105.704,13.981 Q101.302,11.158 96.875,9.722 Q92.449,8.287 87.951,8.287 Q81.108,8.287 77.137,11.469 Q73.165,14.651 73.165,20.058 Q73.165,24.795 75.773,27.284 Q78.381,29.772 85.511,31.447 L90.583,32.595 Q100.632,34.94 105.226,39.964 Q109.819,44.989 109.819,53.65 Q109.819,63.842 103.503,69.202 Q97.187,74.561 85.128,74.561 Q80.104,74.561 75.031,73.484 Q69.959,72.408 64.839,70.254 L64.839,59.966 Q70.342,63.459 75.247,65.086 Q80.151,66.713 85.128,66.713 Q92.449,66.713 96.517,63.436 Q100.584,60.158 100.584,54.272 Q100.584,48.913 97.785,46.089 Q94.985,43.266 88.047,41.735 L82.879,40.539 Q72.926,38.29 68.428,33.744 Q63.93,29.198 63.93,21.542 Q63.93,11.971 70.366,6.205 Q76.802,0.439 87.473,0.439 Q91.588,0.439 96.134,1.372 Q100.68,2.305 105.704,4.171 z" fill="#231400"/>
    <path d="M135.372,9.674 L135.372,36.519 L146.569,36.519 Q153.269,36.519 157.025,32.978 Q160.781,29.437 160.781,23.073 Q160.781,16.708 157.049,13.191 Q153.316,9.674 146.569,9.674 z M125.706,1.731 L146.569,1.731 Q158.532,1.731 164.705,7.162 Q170.878,12.593 170.878,23.073 Q170.878,33.648 164.729,39.055 Q158.58,44.462 146.569,44.462 L135.372,44.462 L135.372,73.173 L125.706,73.173 z" fill="#231400"/>
  </g>
</svg>
