<?xml version="1.0" encoding="UTF-8"?>
<!DOCTYPE svg PUBLIC "-//W3C//DTD SVG 1.1//EN" "http://www.w3.org/Graphics/SVG/1.1/DTD/svg11.dtd">
<svg version="1.1" xmlns="http://www.w3.org/2000/svg" xmlns:xlink="http://www.w3.org/1999/xlink" x="0" y="0" width="176" height="75" viewBox="0, 0, 176, 75">
  <g id="Layer_1">
    <path d="M0.597,10.183 L4.329,10.183 L8.328,28.742 L11.609,16.889 L14.829,16.889 L18.151,28.742 L22.15,10.183 L25.883,10.183 L20.51,33.151 L16.9,33.151 L13.229,20.56 L9.579,33.151 L5.97,33.151 z" fill="#668AAB"/>
    <path d="M48.852,19.78 L48.852,21.626 L32.507,21.626 L32.507,21.749 Q32.343,26.445 34.301,28.496 Q36.26,30.547 39.828,30.547 Q41.633,30.547 43.602,29.973 Q45.57,29.399 47.806,28.23 L47.806,31.983 Q45.652,32.864 43.653,33.305 Q41.653,33.746 39.787,33.746 Q34.435,33.746 31.42,30.537 Q28.405,27.327 28.405,21.688 Q28.405,16.192 31.358,12.91 Q34.312,9.629 39.233,9.629 Q43.622,9.629 46.155,12.603 Q48.688,15.576 48.852,19.78 z M45.078,18.673 Q44.832,16.294 43.345,14.561 Q41.858,12.828 39.069,12.828 Q36.342,12.828 34.578,14.633 Q32.814,16.438 32.65,18.693 z" fill="#668AAB"/>
    <path d="M65.565,21.606 L64.314,21.606 Q61.013,21.606 59.341,22.764 Q57.67,23.923 57.67,26.22 Q57.67,28.291 58.921,29.44 Q60.172,30.588 62.387,30.588 Q65.504,30.588 67.288,28.424 Q69.072,26.261 69.093,22.446 L69.093,21.606 z M72.887,20.047 L72.887,33.151 L69.093,33.151 L69.093,29.747 Q67.883,31.798 66.047,32.772 Q64.212,33.746 61.587,33.746 Q58.08,33.746 55.988,31.767 Q53.896,29.788 53.896,26.466 Q53.896,22.631 56.47,20.642 Q59.044,18.652 64.027,18.652 L69.093,18.652 L69.093,18.058 Q69.072,15.31 67.698,14.069 Q66.324,12.828 63.31,12.828 Q61.382,12.828 59.413,13.382 Q57.444,13.936 55.578,15.002 L55.578,11.229 Q57.67,10.429 59.587,10.029 Q61.505,9.629 63.31,9.629 Q66.16,9.629 68.18,10.47 Q70.2,11.311 71.451,12.992 Q72.23,14.018 72.559,15.525 Q72.887,17.032 72.887,20.047 z" fill="#668AAB"/>
    <path d="M89.047,3.661 L89.047,10.183 L97.619,10.183 L97.619,13.115 L89.047,13.115 L89.047,25.584 Q89.047,28.127 90.011,29.132 Q90.975,30.137 93.374,30.137 L97.619,30.137 L97.619,33.151 L93.005,33.151 Q88.76,33.151 87.017,31.449 Q85.273,29.747 85.273,25.584 L85.273,13.115 L79.142,13.115 L79.142,10.183 L85.273,10.183 L85.273,3.661 z" fill="#668AAB"/>
    <path d="M123.295,18.919 L123.295,33.151 L119.501,33.151 L119.501,18.919 Q119.501,15.822 118.414,14.366 Q117.327,12.91 115.01,12.91 Q112.364,12.91 110.939,14.787 Q109.514,16.663 109.514,20.17 L109.514,33.151 L105.74,33.151 L105.74,1.241 L109.514,1.241 L109.514,13.628 Q110.519,11.659 112.241,10.644 Q113.964,9.629 116.322,9.629 Q119.829,9.629 121.562,11.936 Q123.295,14.243 123.295,18.919 z" fill="#668AAB"/>
    <path d="M149.996,19.78 L149.996,21.626 L133.651,21.626 L133.651,21.749 Q133.487,26.445 135.446,28.496 Q137.404,30.547 140.973,30.547 Q142.777,30.547 144.746,29.973 Q146.715,29.399 148.95,28.23 L148.95,31.983 Q146.797,32.864 144.797,33.305 Q142.798,33.746 140.932,33.746 Q135.579,33.746 132.564,30.537 Q129.55,27.327 129.55,21.688 Q129.55,16.192 132.503,12.91 Q135.456,9.629 140.378,9.629 Q144.767,9.629 147.299,12.603 Q149.832,15.576 149.996,19.78 z M146.223,18.673 Q145.977,16.294 144.49,14.561 Q143.003,12.828 140.214,12.828 Q137.486,12.828 135.723,14.633 Q133.959,16.438 133.795,18.693 z" fill="#668AAB"/>
    <path d="M176,14.92 Q174.79,13.977 173.539,13.546 Q172.288,13.115 170.791,13.115 Q167.264,13.115 165.397,15.33 Q163.531,17.545 163.531,21.729 L163.531,33.151 L159.737,33.151 L159.737,10.183 L163.531,10.183 L163.531,14.674 Q164.475,12.233 166.433,10.931 Q168.392,9.629 171.078,9.629 Q172.473,9.629 173.683,9.978 Q174.893,10.326 176,11.065 z" fill="#668AAB"/>
    <path d="M22.958,71.183 Q21.44,72.064 19.83,72.505 Q18.22,72.946 16.539,72.946 Q11.207,72.946 8.202,69.747 Q5.198,66.548 5.198,60.888 Q5.198,55.227 8.202,52.028 Q11.207,48.829 16.539,48.829 Q18.2,48.829 19.779,49.26 Q21.358,49.69 22.958,50.593 L22.958,54.551 Q21.46,53.218 19.953,52.623 Q18.446,52.028 16.539,52.028 Q12.991,52.028 11.083,54.325 Q9.176,56.622 9.176,60.888 Q9.176,65.133 11.094,67.44 Q13.011,69.747 16.539,69.747 Q18.507,69.747 20.066,69.142 Q21.625,68.537 22.958,67.266 z" fill="#668AAB"/>
    <path d="M39.118,52.028 Q36.247,52.028 34.77,54.264 Q33.293,56.499 33.293,60.888 Q33.293,65.256 34.77,67.501 Q36.247,69.747 39.118,69.747 Q42.009,69.747 43.486,67.501 Q44.962,65.256 44.962,60.888 Q44.962,56.499 43.486,54.264 Q42.009,52.028 39.118,52.028 z M39.118,48.829 Q43.896,48.829 46.429,51.926 Q48.961,55.022 48.961,60.888 Q48.961,66.773 46.439,69.86 Q43.917,72.946 39.118,72.946 Q34.339,72.946 31.817,69.86 Q29.294,66.773 29.294,60.888 Q29.294,55.022 31.817,51.926 Q34.339,48.829 39.118,48.829 z" fill="#668AAB"/>
    <path d="M73.325,58.119 L73.325,72.351 L69.531,72.351 L69.531,58.119 Q69.531,55.022 68.444,53.566 Q67.357,52.11 65.04,52.11 Q62.394,52.11 60.969,53.987 Q59.543,55.863 59.543,59.37 L59.543,72.351 L55.77,72.351 L55.77,49.383 L59.543,49.383 L59.543,52.828 Q60.548,50.859 62.271,49.844 Q63.994,48.829 66.352,48.829 Q69.859,48.829 71.592,51.136 Q73.325,53.443 73.325,58.119 z" fill="#668AAB"/>
    <path d="M89.649,42.861 L89.649,49.383 L98.221,49.383 L98.221,52.315 L89.649,52.315 L89.649,64.784 Q89.649,67.327 90.613,68.332 Q91.577,69.337 93.976,69.337 L98.221,69.337 L98.221,72.351 L93.607,72.351 Q89.362,72.351 87.619,70.649 Q85.875,68.947 85.875,64.784 L85.875,52.315 L79.744,52.315 L79.744,49.383 L85.875,49.383 L85.875,42.861 z" fill="#668AAB"/>
    <path d="M125.312,58.98 L125.312,60.826 L108.967,60.826 L108.967,60.949 Q108.803,65.645 110.762,67.696 Q112.72,69.747 116.289,69.747 Q118.093,69.747 120.062,69.173 Q122.031,68.599 124.266,67.43 L124.266,71.183 Q122.113,72.064 120.113,72.505 Q118.114,72.946 116.248,72.946 Q110.895,72.946 107.88,69.737 Q104.866,66.527 104.866,60.888 Q104.866,55.392 107.819,52.11 Q110.772,48.829 115.694,48.829 Q120.083,48.829 122.615,51.803 Q125.148,54.776 125.312,58.98 z M121.539,57.873 Q121.292,55.494 119.806,53.761 Q118.319,52.028 115.53,52.028 Q112.802,52.028 111.039,53.833 Q109.275,55.638 109.111,57.893 z" fill="#668AAB"/>
    <path d="M150.557,49.383 L142.333,60.375 L151.357,72.351 L146.989,72.351 L140.262,63.143 L133.556,72.351 L129.188,72.351 L138.211,60.375 L129.988,49.383 L134.171,49.383 L140.262,57.688 L146.312,49.383 z" fill="#668AAB"/>
    <path d="M164.908,44.266 L164.908,50.476 L173.072,50.476 L173.072,53.269 L164.908,53.269 L164.908,65.144 Q164.908,67.566 165.826,68.523 Q166.744,69.48 169.029,69.48 L173.072,69.48 L173.072,72.351 L168.677,72.351 Q164.634,72.351 162.974,70.73 Q161.314,69.109 161.314,65.144 L161.314,53.269 L155.474,53.269 L155.474,50.476 L161.314,50.476 L161.314,44.266 z" fill="#668AAB"/>
  </g>
</svg>
