<?xml version="1.0" encoding="UTF-8"?>
<!DOCTYPE svg PUBLIC "-//W3C//DTD SVG 1.1//EN" "http://www.w3.org/Graphics/SVG/1.1/DTD/svg11.dtd">
<svg version="1.1" xmlns="http://www.w3.org/2000/svg" xmlns:xlink="http://www.w3.org/1999/xlink" x="0" y="0" width="690.682" height="126.75" viewBox="0, 0, 690.682, 126.75">
  <g id="Layer_1">
    <path d="M8.126,25.28 L21.046,25.28 L33.392,61.552 L45.833,25.28 L58.801,25.28 L58.801,96.483 L49.853,96.483 L49.853,33.559 L37.124,71.074 L29.803,71.074 L17.027,33.559 L17.027,96.483 L8.126,96.483 z" fill="#231400"/>
    <path d="M113.83,27.481 L113.83,37.291 Q109.428,34.468 105.002,33.032 Q100.576,31.597 96.078,31.597 Q89.235,31.597 85.263,34.779 Q81.291,37.961 81.291,43.368 Q81.291,48.105 83.899,50.594 Q86.507,53.082 93.637,54.757 L98.709,55.905 Q108.758,58.25 113.352,63.274 Q117.946,68.299 117.946,76.96 Q117.946,87.152 111.629,92.512 Q105.313,97.871 93.254,97.871 Q88.23,97.871 83.158,96.794 Q78.085,95.718 72.965,93.564 L72.965,83.276 Q78.468,86.769 83.373,88.396 Q88.278,90.023 93.254,90.023 Q100.576,90.023 104.643,86.746 Q108.71,83.468 108.71,77.582 Q108.71,72.223 105.911,69.399 Q103.112,66.576 96.173,65.045 L91.005,63.849 Q81.052,61.6 76.554,57.054 Q72.056,52.508 72.056,44.851 Q72.056,35.281 78.492,29.515 Q84.928,23.749 95.599,23.749 Q99.714,23.749 104.26,24.682 Q108.806,25.615 113.83,27.481 z" fill="#231400"/>
    <path d="M143.498,32.984 L143.498,59.829 L154.696,59.829 Q161.395,59.829 165.151,56.288 Q168.908,52.747 168.908,46.383 Q168.908,40.018 165.175,36.501 Q161.443,32.984 154.696,32.984 z M133.832,25.041 L154.696,25.041 Q166.659,25.041 172.831,30.472 Q179.004,35.903 179.004,46.383 Q179.004,56.958 172.855,62.365 Q166.706,67.772 154.696,67.772 L143.498,67.772 L143.498,96.483 L133.832,96.483 z" fill="#231400"/>
    <path d="M187.314,33.493 L191.046,33.493 L195.045,52.052 L198.327,40.199 L201.546,40.199 L204.869,52.052 L208.868,33.493 L212.6,33.493 L207.227,56.461 L203.618,56.461 L199.947,43.87 L196.296,56.461 L192.687,56.461 z" fill="#231400"/>
    <path d="M235.569,43.09 L235.569,44.936 L219.224,44.936 L219.224,45.059 Q219.06,49.755 221.018,51.806 Q222.977,53.857 226.545,53.857 Q228.35,53.857 230.319,53.283 Q232.288,52.709 234.523,51.54 L234.523,55.293 Q232.37,56.174 230.37,56.615 Q228.371,57.056 226.504,57.056 Q221.152,57.056 218.137,53.847 Q215.122,50.637 215.122,44.998 Q215.122,39.501 218.076,36.22 Q221.029,32.939 225.951,32.939 Q230.339,32.939 232.872,35.913 Q235.405,38.886 235.569,43.09 z M231.795,41.983 Q231.549,39.604 230.062,37.871 Q228.576,36.138 225.787,36.138 Q223.059,36.138 221.295,37.943 Q219.532,39.748 219.368,42.003 z" fill="#231400"/>
    <path d="M252.283,44.916 L251.032,44.916 Q247.73,44.916 246.059,46.074 Q244.387,47.233 244.387,49.53 Q244.387,51.601 245.638,52.75 Q246.889,53.898 249.104,53.898 Q252.221,53.898 254.005,51.734 Q255.789,49.571 255.81,45.756 L255.81,44.916 z M259.604,43.357 L259.604,56.461 L255.81,56.461 L255.81,53.057 Q254.6,55.108 252.765,56.082 Q250.929,57.056 248.304,57.056 Q244.797,57.056 242.706,55.077 Q240.614,53.098 240.614,49.776 Q240.614,45.941 243.187,43.952 Q245.761,41.962 250.745,41.962 L255.81,41.962 L255.81,41.368 Q255.789,38.62 254.415,37.379 Q253.041,36.138 250.027,36.138 Q248.099,36.138 246.13,36.692 Q244.162,37.246 242.295,38.312 L242.295,34.539 Q244.387,33.739 246.305,33.339 Q248.222,32.939 250.027,32.939 Q252.877,32.939 254.897,33.78 Q256.917,34.621 258.168,36.302 Q258.948,37.328 259.276,38.835 Q259.604,40.342 259.604,43.357 z" fill="#231400"/>
    <path d="M275.764,26.971 L275.764,33.493 L284.336,33.493 L284.336,36.425 L275.764,36.425 L275.764,48.894 Q275.764,51.437 276.728,52.442 Q277.692,53.447 280.091,53.447 L284.336,53.447 L284.336,56.461 L279.722,56.461 Q275.477,56.461 273.734,54.759 Q271.991,53.057 271.991,48.894 L271.991,36.425 L265.859,36.425 L265.859,33.493 L271.991,33.493 L271.991,26.971 z" fill="#231400"/>
    <path d="M310.012,42.229 L310.012,56.461 L306.218,56.461 L306.218,42.229 Q306.218,39.132 305.131,37.676 Q304.044,36.22 301.727,36.22 Q299.081,36.22 297.656,38.097 Q296.231,39.973 296.231,43.48 L296.231,56.461 L292.457,56.461 L292.457,24.551 L296.231,24.551 L296.231,36.938 Q297.236,34.969 298.958,33.954 Q300.681,32.939 303.039,32.939 Q306.546,32.939 308.279,35.246 Q310.012,37.553 310.012,42.229 z" fill="#231400"/>
    <path d="M336.713,43.09 L336.713,44.936 L320.369,44.936 L320.369,45.059 Q320.205,49.755 322.163,51.806 Q324.122,53.857 327.69,53.857 Q329.495,53.857 331.463,53.283 Q333.432,52.709 335.667,51.54 L335.667,55.293 Q333.514,56.174 331.515,56.615 Q329.515,57.056 327.649,57.056 Q322.296,57.056 319.282,53.847 Q316.267,50.637 316.267,44.998 Q316.267,39.501 319.22,36.22 Q322.173,32.939 327.095,32.939 Q331.484,32.939 334.017,35.913 Q336.549,38.886 336.713,43.09 z M332.94,41.983 Q332.694,39.604 331.207,37.871 Q329.72,36.138 326.931,36.138 Q324.204,36.138 322.44,37.943 Q320.676,39.748 320.512,42.003 z" fill="#231400"/>
    <path d="M362.717,38.23 Q361.507,37.287 360.256,36.856 Q359.005,36.425 357.508,36.425 Q353.981,36.425 352.115,38.64 Q350.248,40.855 350.248,45.039 L350.248,56.461 L346.455,56.461 L346.455,33.493 L350.248,33.493 L350.248,37.984 Q351.192,35.543 353.15,34.241 Q355.109,32.939 357.795,32.939 Q359.19,32.939 360.4,33.288 Q361.61,33.636 362.717,34.375 z" fill="#000000"/>
    <path d="M209.675,94.493 Q208.157,95.374 206.547,95.815 Q204.937,96.256 203.256,96.256 Q197.924,96.256 194.919,93.057 Q191.915,89.858 191.915,84.198 Q191.915,78.537 194.919,75.338 Q197.924,72.139 203.256,72.139 Q204.917,72.139 206.496,72.57 Q208.075,73 209.675,73.903 L209.675,77.861 Q208.178,76.528 206.67,75.933 Q205.163,75.338 203.256,75.338 Q199.708,75.338 197.801,77.635 Q195.893,79.932 195.893,84.198 Q195.893,88.443 197.811,90.75 Q199.728,93.057 203.256,93.057 Q205.225,93.057 206.783,92.452 Q208.342,91.847 209.675,90.576 z" fill="#231400"/>
    <path d="M225.835,75.338 Q222.964,75.338 221.487,77.574 Q220.011,79.809 220.011,84.198 Q220.011,88.566 221.487,90.811 Q222.964,93.057 225.835,93.057 Q228.727,93.057 230.203,90.811 Q231.68,88.566 231.68,84.198 Q231.68,79.809 230.203,77.574 Q228.727,75.338 225.835,75.338 z M225.835,72.139 Q230.613,72.139 233.146,75.236 Q235.679,78.332 235.679,84.198 Q235.679,90.083 233.156,93.17 Q230.634,96.256 225.835,96.256 Q221.057,96.256 218.534,93.17 Q216.012,90.083 216.012,84.198 Q216.012,78.332 218.534,75.236 Q221.057,72.139 225.835,72.139 z" fill="#231400"/>
    <path d="M260.042,81.429 L260.042,95.661 L256.248,95.661 L256.248,81.429 Q256.248,78.332 255.161,76.876 Q254.074,75.42 251.757,75.42 Q249.111,75.42 247.686,77.297 Q246.261,79.173 246.261,82.68 L246.261,95.661 L242.487,95.661 L242.487,72.693 L246.261,72.693 L246.261,76.138 Q247.266,74.169 248.988,73.154 Q250.711,72.139 253.069,72.139 Q256.576,72.139 258.309,74.446 Q260.042,76.753 260.042,81.429 z" fill="#231400"/>
    <path d="M276.366,66.171 L276.366,72.693 L284.938,72.693 L284.938,75.625 L276.366,75.625 L276.366,88.094 Q276.366,90.637 277.33,91.642 Q278.294,92.647 280.693,92.647 L284.938,92.647 L284.938,95.661 L280.324,95.661 Q276.079,95.661 274.336,93.959 Q272.593,92.257 272.593,88.094 L272.593,75.625 L266.461,75.625 L266.461,72.693 L272.593,72.693 L272.593,66.171 z" fill="#231400"/>
    <path d="M312.029,82.29 L312.029,84.136 L295.685,84.136 L295.685,84.259 Q295.52,88.955 297.479,91.006 Q299.437,93.057 303.006,93.057 Q304.81,93.057 306.779,92.483 Q308.748,91.909 310.983,90.74 L310.983,94.493 Q308.83,95.374 306.831,95.815 Q304.831,96.256 302.965,96.256 Q297.612,96.256 294.598,93.047 Q291.583,89.837 291.583,84.198 Q291.583,78.701 294.536,75.42 Q297.489,72.139 302.411,72.139 Q306.8,72.139 309.332,75.113 Q311.865,78.086 312.029,82.29 z M308.256,81.183 Q308.01,78.804 306.523,77.071 Q305.036,75.338 302.247,75.338 Q299.519,75.338 297.756,77.143 Q295.992,78.948 295.828,81.203 z" fill="#231400"/>
    <path d="M337.274,72.693 L329.051,83.685 L338.074,95.661 L333.706,95.661 L326.979,86.453 L320.273,95.661 L315.905,95.661 L324.929,83.685 L316.705,72.693 L320.889,72.693 L326.979,80.998 L333.029,72.693 z" fill="#231400"/>
    <path d="M351.625,67.576 L351.625,73.786 L359.789,73.786 L359.789,76.579 L351.625,76.579 L351.625,88.454 Q351.625,90.876 352.543,91.833 Q353.461,92.79 355.746,92.79 L359.789,92.79 L359.789,95.661 L355.394,95.661 Q351.352,95.661 349.691,94.04 Q348.031,92.419 348.031,88.454 L348.031,76.579 L342.191,76.579 L342.191,73.786 L348.031,73.786 L348.031,67.576 z" fill="#231400"/>
    <g>
      <path d="M640.172,15.548 L640.172,111.215" fill-opacity="0" stroke="#648AAC" stroke-width="6" stroke-linecap="round"/>
      <path d="M640.172,93.882 L651.172,106.882" fill-opacity="0" stroke="#648AAC" stroke-width="3" stroke-linecap="round"/>
      <path d="M640.172,93.882 L629.172,106.882" fill-opacity="0" stroke="#648AAC" stroke-width="3" stroke-linecap="round"/>
      <path d="M640.172,33.548 L651.172,20.548" fill-opacity="0" stroke="#648AAC" stroke-width="3" stroke-linecap="round"/>
      <path d="M640.172,33.548 L629.172,20.548" fill-opacity="0" stroke="#648AAC" stroke-width="3" stroke-linecap="round"/>
      <path d="M598.459,39.298 L681.309,87.132" fill-opacity="0" stroke="#648AAC" stroke-width="6" stroke-linecap="round"/>
      <path d="M666.298,78.465 L683.056,75.439" fill-opacity="0" stroke="#648AAC" stroke-width="3" stroke-linecap="round"/>
      <path d="M666.298,78.465 L672.056,94.491" fill-opacity="0" stroke="#648AAC" stroke-width="3" stroke-linecap="round"/>
      <path d="M614.047,48.298 L608.289,32.272" fill-opacity="0" stroke="#648AAC" stroke-width="3" stroke-linecap="round"/>
      <path d="M614.047,48.298 L597.289,51.325" fill-opacity="0" stroke="#648AAC" stroke-width="3" stroke-linecap="round"/>
      <path d="M598.459,87.465 L681.309,39.632" fill-opacity="0" stroke="#648AAC" stroke-width="6" stroke-linecap="round"/>
      <path d="M666.298,48.298 L672.056,32.272" fill-opacity="0" stroke="#648AAC" stroke-width="3" stroke-linecap="round"/>
      <path d="M666.298,48.298 L683.056,51.325" fill-opacity="0" stroke="#648AAC" stroke-width="3" stroke-linecap="round"/>
      <path d="M614.047,78.465 L597.289,75.439" fill-opacity="0" stroke="#648AAC" stroke-width="3" stroke-linecap="round"/>
      <path d="M614.047,78.465 L608.289,94.491" fill-opacity="0" stroke="#648AAC" stroke-width="3" stroke-linecap="round"/>
    </g>
    <g>
      <path d="M431.793,13.429 L431.793,28.095" fill-opacity="0" stroke="#AF7E34" stroke-width="3" stroke-linecap="round"/>
      <path d="M407.876,19.837 L415.736,33.483" fill-opacity="0" stroke="#AF7E34" stroke-width="3" stroke-linecap="round"/>
      <path d="M390.368,37.345 L403.736,44.483" fill-opacity="0" stroke="#AF7E34" stroke-width="3" stroke-linecap="round"/>
      <path d="M383.96,61.262 L398.626,61.262" fill-opacity="0" stroke="#AF7E34" stroke-width="3" stroke-linecap="round"/>
      <path d="M390.368,85.179 L403.736,77.483" fill-opacity="0" stroke="#AF7E34" stroke-width="3" stroke-linecap="round"/>
      <path d="M407.876,102.687 L415.736,89.483" fill-opacity="0" stroke="#AF7E34" stroke-width="3" stroke-linecap="round"/>
      <path d="M431.793,109.095 L431.793,94.429" fill-opacity="0" stroke="#AF7E34" stroke-width="3" stroke-linecap="round"/>
      <path d="M455.71,102.687 L447.85,89.041" fill-opacity="0" stroke="#AF7E34" stroke-width="3" stroke-linecap="round"/>
      <path d="M473.218,85.179 L459.85,78.041" fill-opacity="0" stroke="#AF7E34" stroke-width="3" stroke-linecap="round"/>
      <path d="M479.626,61.262 L464.96,61.262" fill-opacity="0" stroke="#AF7E34" stroke-width="3" stroke-linecap="round"/>
      <path d="M473.218,37.345 L459.85,45.041" fill-opacity="0" stroke="#AF7E34" stroke-width="3" stroke-linecap="round"/>
      <path d="M455.71,19.837 L447.85,33.041" fill-opacity="0" stroke="#AF7E34" stroke-width="3" stroke-linecap="round"/>
      <path d="M431.793,94.429 C413.476,94.429 398.626,79.58 398.626,61.262 C398.626,42.945 413.476,28.095 431.793,28.095 C450.11,28.095 464.96,42.945 464.96,61.262 C464.96,79.58 450.11,94.429 431.793,94.429 z" fill-opacity="0" stroke="#AF7E34" stroke-width="6"/>
    </g>
    <g>
      <path d="M507.442,63.143 C503.242,83.61 495.442,87.21 495.108,98.476 C495.242,106.81 500.642,111.01 507.108,111.088 C513.842,111.41 518.842,106.21 518.775,98.81 C519.042,87.61 511.642,83.61 507.442,63.143 z" fill-opacity="0" stroke="#205B66" stroke-width="6" stroke-linejoin="round"/>
      <path d="M536.442,15.422 C532.242,35.888 524.442,39.488 524.108,50.755 C524.242,59.088 529.642,63.288 536.108,63.367 C542.842,63.688 547.842,58.488 547.775,51.088 C548.042,39.888 540.642,35.888 536.442,15.422 z" fill-opacity="0" stroke="#205B66" stroke-width="6" stroke-linejoin="round"/>
      <path d="M565.442,63.143 C561.242,83.61 553.442,87.21 553.108,98.476 C553.242,106.81 558.642,111.01 565.108,111.088 C571.842,111.41 576.842,106.21 576.775,98.81 C577.042,87.61 569.642,83.61 565.442,63.143 z" fill-opacity="0" stroke="#205B66" stroke-width="6" stroke-linejoin="round"/>
    </g>
    <path d="M8.626,119.5 L683.056,119.5" fill-opacity="0" stroke="#684208" stroke-width="3"/>
    <path d="M7.353,6.457 L683.056,6.457" fill-opacity="0" stroke="#684208" stroke-width="3"/>
  </g>
</svg>
